<svg width="36" height="28" viewBox="0 0 36 28" fill="none" xmlns="http://www.w3.org/2000/svg">
<path d="M16.8386 10.2149C16.4057 9.76694 16.4057 9.04069 16.8386 8.59272C17.2717 8.14474 17.9736 8.14474 18.4065 8.59272L22.0652 12.3779L25.7236 8.59272C26.1566 8.14474 26.8585 8.14474 27.2916 8.59272C27.7245 9.0406 27.7245 9.76694 27.2916 10.2149L23.6329 14L27.2916 17.7852C27.7245 18.233 27.7245 18.9594 27.2916 19.4073C26.8585 19.8552 26.1566 19.8552 25.7236 19.4073L22.0652 15.6222L18.4065 19.4073C17.9736 19.8552 17.2717 19.8552 16.8387 19.4073C16.4057 18.9593 16.4057 18.233 16.8387 17.7851L20.4972 14.0001L16.8386 10.2149Z" fill="black"/>
<path fill-rule="evenodd" clip-rule="evenodd" d="M12.2663 2.34382L0.999954 14L12.2663 25.6562C13.098 26.5166 14.226 27 15.4022 27H30.5652C33.0144 27 35 24.9458 35 22.4118V5.58822C35 3.0542 33.0144 0.999988 30.5652 0.999988H15.4022C14.226 0.999988 13.098 1.48344 12.2663 2.34382ZM30.5652 25.0118H15.4022C14.7356 25.0118 14.0964 24.7378 13.6251 24.2502L3.71774 14L13.6251 3.74974C14.0964 3.26218 14.7356 2.9882 15.4022 2.9882H30.5652C31.953 2.9882 33.0781 4.15225 33.0781 5.58822V22.4118C33.0781 23.8477 31.953 25.0118 30.5652 25.0118Z" fill="black"/>
<path fill-rule="evenodd" clip-rule="evenodd" d="M0.721802 14L12.1225 2.20483C12.9911 1.30623 14.1707 0.799988 15.4022 0.799988H30.5652C33.1313 0.799988 35.2 2.95021 35.2 5.58822V22.4118C35.2 25.0498 33.1313 27.2 30.5652 27.2H15.4022C14.1707 27.2 12.9911 26.6939 12.1225 25.7951L0.721802 14ZM16.6948 8.45371C17.2065 7.92443 18.0388 7.92438 18.5503 8.45372C18.5503 8.45371 18.5503 8.45373 18.5503 8.45372L22.0652 12.0901L25.5798 8.45374C25.5798 8.45374 25.5798 8.45373 25.5798 8.45374C26.0914 7.9244 26.9237 7.92443 27.4354 8.45371C27.9432 8.97912 27.9432 9.82842 27.4354 10.3539L23.9111 14L27.4354 17.6462C27.9432 18.1716 27.9432 19.0209 27.4354 19.5463C26.9237 20.0755 26.0914 20.0756 25.5798 19.5463C25.5798 19.5462 25.5798 19.5463 25.5798 19.5463L22.0652 15.91L18.5503 19.5462C18.5503 19.5462 18.5503 19.5462 18.5503 19.5462C18.0388 20.0755 17.2065 20.0756 16.695 19.5463C16.1869 19.0208 16.1869 18.1715 16.695 17.646L20.2191 14.0001L16.6948 10.3539C16.187 9.82843 16.187 8.9792 16.6948 8.45371ZM20.4972 14.0001L16.8387 17.7851C16.4057 18.233 16.4057 18.9593 16.8387 19.4073C17.2717 19.8552 17.9736 19.8552 18.4065 19.4073L22.0652 15.6222L25.7236 19.4073C26.1566 19.8552 26.8585 19.8552 27.2916 19.4073C27.7245 18.9594 27.7245 18.233 27.2916 17.7852L23.6329 14L27.2916 10.2149C27.7245 9.76694 27.7245 9.0406 27.2916 8.59272C26.8585 8.14474 26.1566 8.14474 25.7236 8.59272L22.0652 12.3779L18.4065 8.59272C17.9736 8.14474 17.2717 8.14474 16.8386 8.59272C16.4057 9.04069 16.4057 9.76694 16.8386 10.2149L20.4972 14.0001ZM15.4022 24.8118H30.5652C31.8362 24.8118 32.8781 23.7437 32.8781 22.4118V5.58822C32.8781 4.25624 31.8362 3.1882 30.5652 3.1882H15.4022C14.7909 3.1882 14.2033 3.43938 13.7689 3.88873C13.7689 3.88874 13.7689 3.88873 13.7689 3.88873L3.99589 14L13.7689 24.1112C13.7689 24.1112 13.7689 24.1112 13.7689 24.1112C14.2033 24.5606 14.7909 24.8118 15.4022 24.8118ZM13.6251 24.2502C14.0964 24.7378 14.7356 25.0118 15.4022 25.0118H30.5652C31.953 25.0118 33.0781 23.8477 33.0781 22.4118V5.58822C33.0781 4.15225 31.953 2.9882 30.5652 2.9882H15.4022C14.7356 2.9882 14.0964 3.26218 13.6251 3.74974L3.71774 14L13.6251 24.2502ZM0.999954 14L12.2663 25.6562C13.098 26.5166 14.226 27 15.4022 27H30.5652C33.0144 27 35 24.9458 35 22.4118V5.58822C35 3.0542 33.0144 0.999988 30.5652 0.999988H15.4022C14.226 0.999988 13.098 1.48344 12.2663 2.34382L0.999954 14Z" fill="#212129"/>
</svg>
