<svg width="18" height="17" viewBox="0 0 18 17" fill="none" xmlns="http://www.w3.org/2000/svg">
<path fill-rule="evenodd" clip-rule="evenodd" d="M9.00001 16.8334C13.6024 16.8334 17.3333 13.1024 17.3333 8.50002C17.3333 3.89765 13.6024 0.166687 9.00001 0.166687C4.39763 0.166687 0.666672 3.89765 0.666672 8.50002C0.666672 13.1024 4.39763 16.8334 9.00001 16.8334ZM11.2097 7.3764C11.4538 7.13232 11.4538 6.73659 11.2097 6.49251C10.9656 6.24843 10.5699 6.24843 10.3258 6.49251L8.99999 7.81834L7.67417 6.49251C7.43009 6.24844 7.03436 6.24844 6.79028 6.49251C6.5462 6.73659 6.5462 7.13232 6.79028 7.3764L8.11611 8.70222L6.79028 10.028C6.5462 10.2721 6.5462 10.6679 6.79028 10.9119C7.03436 11.156 7.43009 11.156 7.67417 10.9119L8.99999 9.5861L10.3258 10.9119C10.5699 11.156 10.9656 11.156 11.2097 10.9119C11.4538 10.6679 11.4538 10.2721 11.2097 10.028L9.88387 8.70222L11.2097 7.3764Z" fill="#BDC8D3"/>
</svg>
