<svg width="335" height="339" viewBox="0 0 335 339" fill="none" xmlns="http://www.w3.org/2000/svg">
<path opacity="0.3" d="M127.5 151.033C127.5 143.992 127.5 138.733 127.712 134.937C127.817 133.04 127.975 131.525 128.207 130.346C128.441 129.16 128.742 128.359 129.105 127.854C129.467 127.35 130.134 126.808 131.196 126.205C132.251 125.606 133.655 124.969 135.443 124.258C139.022 122.837 144.08 121.144 150.851 118.878L153.428 118.015C160.512 115.644 163.949 114.5 167.5 114.5C171.051 114.5 174.488 115.644 181.572 118.015L184.149 118.878C190.92 121.144 195.978 122.837 199.557 124.258C201.346 124.969 202.749 125.606 203.804 126.205C204.866 126.808 205.533 127.35 205.895 127.854C206.258 128.359 206.559 129.16 206.793 130.346C207.025 131.525 207.183 133.04 207.288 134.937C207.5 138.733 207.5 143.992 207.5 151.033V157.962C207.5 182.455 188.68 194.369 176.76 199.46C175.13 200.157 173.949 200.66 172.609 200.995C171.277 201.329 169.768 201.5 167.5 201.5C165.232 201.5 163.723 201.329 162.391 200.995C161.051 200.66 159.87 200.157 158.24 199.46C146.32 194.369 127.5 182.455 127.5 157.962V151.033Z" stroke="#63BE37"/>
<path opacity="0.15" d="M110.5 148.183C110.5 138.264 110.5 130.847 110.801 125.491C110.951 122.814 111.175 120.669 111.508 118.995C111.842 117.312 112.277 116.151 112.817 115.404C113.357 114.658 114.334 113.876 115.853 113.02C117.363 112.169 119.365 111.268 121.909 110.265C126.997 108.26 134.184 105.872 143.795 102.679L147.454 101.464C157.498 98.1275 162.416 96.5 167.5 96.5C172.584 96.5 177.502 98.1275 187.546 101.464L191.205 102.679C200.816 105.872 208.003 108.26 213.091 110.265C215.635 111.268 217.637 112.169 219.147 113.02C220.666 113.876 221.643 114.658 222.183 115.404C222.723 116.151 223.158 117.312 223.492 118.995C223.825 120.669 224.049 122.814 224.199 125.491C224.5 130.847 224.5 138.264 224.5 148.183V157.946C224.5 192.586 197.676 209.426 180.731 216.609C178.419 217.589 176.727 218.305 174.806 218.782C172.891 219.258 170.73 219.5 167.5 219.5C164.27 219.5 162.109 219.258 160.194 218.782C158.273 218.305 156.581 217.589 154.269 216.609C137.324 209.426 110.5 192.586 110.5 157.946V148.183Z" stroke="#63BE37"/>
<path opacity="0.1" d="M73.5 141.85C73.5 125.536 73.5002 113.322 73.9947 104.5C74.2419 100.089 74.6119 96.5438 75.1627 93.7673C75.7151 90.9828 76.4408 89.0183 77.3692 87.7334C78.2969 86.4494 79.952 85.1356 82.4608 83.7202C84.962 82.3091 88.2688 80.8204 92.4543 79.1686C100.826 75.8648 112.649 71.9333 128.439 66.6825L134.454 64.6826C150.941 59.2003 159.08 56.5 167.5 56.5C175.92 56.5 184.059 59.2003 200.546 64.6826L206.561 66.6825C222.351 71.9333 234.174 75.8648 242.546 79.1686C246.731 80.8204 250.038 82.3091 252.539 83.7202C255.048 85.1356 256.703 86.4494 257.631 87.7334C258.559 89.0183 259.285 90.9828 259.837 93.7673C260.388 96.5438 260.758 100.089 261.005 104.5C261.5 113.322 261.5 125.536 261.5 141.85V157.912C261.5 215.104 217.248 242.888 189.37 254.718C185.575 256.328 182.771 257.517 179.585 258.309C176.405 259.1 172.825 259.5 167.5 259.5C162.175 259.5 158.595 259.1 155.415 258.309C152.229 257.517 149.425 256.328 145.63 254.718C117.752 242.888 73.5 215.104 73.5 157.912V141.85Z" stroke="#63BE37"/>
<path opacity="0.1" d="M0.5 129.341C0.5 100.397 0.500194 78.7103 1.37747 63.0417C1.81607 55.2079 2.47314 48.8959 3.45455 43.943C4.43754 38.9821 5.73744 35.4315 7.43143 33.0842C9.12473 30.7379 12.116 28.3734 16.5796 25.8523C21.0356 23.3356 26.9157 20.6863 34.3409 17.7527C49.1922 11.8851 70.1597 4.90472 98.1438 -4.41125L108.804 -7.96022C138.003 -17.6807 152.499 -22.5 167.5 -22.5C182.501 -22.5 196.997 -17.6807 226.196 -7.96021L236.856 -4.41124C264.84 4.90472 285.808 11.8851 300.659 17.7527C308.084 20.6863 313.964 23.3356 318.42 25.8523C322.884 28.3734 325.875 30.7379 327.569 33.0842C329.263 35.4315 330.562 38.9821 331.545 43.943C332.527 48.8959 333.184 55.2079 333.623 63.0417C334.5 78.7103 334.5 100.397 334.5 129.341V157.844C334.5 259.577 255.865 308.975 206.415 329.984C199.694 332.839 194.696 334.961 189.013 336.376C183.337 337.789 176.959 338.5 167.5 338.5C158.041 338.5 151.663 337.789 145.987 336.376C140.304 334.961 135.306 332.839 128.585 329.983C79.1348 308.975 0.5 259.577 0.5 157.844V129.341Z" stroke="#63BE37"/>
<path fill-rule="evenodd" clip-rule="evenodd" d="M144.049 139.323C143 140.775 143 145.091 143 153.725V157.977C143 173.199 154.775 180.587 162.163 183.724C164.167 184.575 165.169 185 168 185C170.831 185 171.833 184.575 173.837 183.724C181.225 180.587 193 173.199 193 157.977V153.725C193 145.091 193 140.775 191.951 139.323C190.903 137.87 186.727 136.481 178.375 133.702L176.784 133.173C172.431 131.724 170.254 131 168 131C165.746 131 163.569 131.724 159.216 133.173L157.625 133.702C149.273 136.481 145.097 137.87 144.049 139.323Z" fill="url(#paint0_linear_1144_3)"/>
<path d="M167.5 162V169M170.999 161.061C167.652 162.994 163.371 161.847 161.439 158.499C159.506 155.152 160.653 150.872 164 148.939C165.365 148.151 166.884 147.875 168.337 148.051C170.447 148.307 172.416 149.518 173.561 151.501C174.706 153.484 174.77 155.794 173.936 157.75C173.363 159.096 172.364 160.273 170.999 161.061Z" stroke="white" stroke-width="2.5" stroke-linecap="round"/>
<defs>
<linearGradient id="paint0_linear_1144_3" x1="168" y1="131" x2="168" y2="185" gradientUnits="userSpaceOnUse">
<stop stop-color="#63BE37"/>
<stop offset="1" stop-color="#439C18"/>
</linearGradient>
</defs>
</svg>
