<svg width="29" height="29" viewBox="0 0 29 29" fill="none" xmlns="http://www.w3.org/2000/svg">
<path d="M14.4999 3.32292C13.3176 3.32292 12.3093 4.07816 11.9357 5.13534C11.7689 5.60724 11.2511 5.85458 10.7792 5.68778C10.3073 5.52099 10.06 5.00323 10.2268 4.53133C10.8484 2.77263 12.5256 1.51042 14.4999 1.51042C16.4743 1.51042 18.1515 2.77263 18.7731 4.53133C18.9399 5.00323 18.6926 5.52099 18.2207 5.68778C17.7488 5.85458 17.231 5.60724 17.0642 5.13534C16.6906 4.07816 15.6823 3.32292 14.4999 3.32292Z" fill="white"/>
<path d="M3.32281 7.25C3.32281 6.74949 3.72856 6.34375 4.22906 6.34375H24.7708C25.2713 6.34375 25.6771 6.74949 25.6771 7.25C25.6771 7.75051 25.2713 8.15625 24.7708 8.15625H4.22906C3.72856 8.15625 3.32281 7.75051 3.32281 7.25Z" fill="white"/>
<path d="M7.14729 10.2105C7.114 9.71115 6.68217 9.3333 6.18277 9.36659C5.68337 9.39988 5.30551 9.83172 5.33881 10.3311L5.89881 18.7311C6.00212 20.2811 6.08556 21.5331 6.28128 22.5156C6.48476 23.537 6.83085 24.3902 7.5457 25.0589C8.26054 25.7277 9.13483 26.0163 10.1675 26.1514C11.1608 26.2813 12.4156 26.2813 13.969 26.2812H15.031C16.5844 26.2813 17.8392 26.2813 18.8325 26.1514C19.8652 26.0163 20.7394 25.7277 21.4543 25.0589C22.1691 24.3902 22.5152 23.537 22.7187 22.5156C22.9144 21.5331 22.9979 20.2811 23.1012 18.7311L23.6612 10.3311C23.6945 9.83172 23.3166 9.39988 22.8172 9.36659C22.3178 9.3333 21.886 9.71115 21.8527 10.2105L21.2969 18.547C21.1884 20.1756 21.111 21.3088 20.9411 22.1615C20.7764 22.9885 20.5464 23.4263 20.216 23.7354C19.8856 24.0444 19.4335 24.2448 18.5974 24.3542C17.7353 24.4669 16.5995 24.4688 14.9672 24.4688H14.0328C12.4005 24.4688 11.2646 24.4669 10.4026 24.3542C9.56645 24.2448 9.11434 24.0444 8.78397 23.7354C8.45359 23.4263 8.22361 22.9885 8.05885 22.1615C7.889 21.3088 7.81163 20.1756 7.70305 18.547L7.14729 10.2105Z" fill="white"/>
<path d="M11.389 12.3899C11.887 12.3401 12.3311 12.7035 12.3809 13.2015L12.9851 19.2432C13.0349 19.7412 12.6715 20.1853 12.1735 20.2351C11.6755 20.2849 11.2314 19.9215 11.1816 19.4235L10.5774 13.3818C10.5276 12.8838 10.891 12.4397 11.389 12.3899Z" fill="white"/>
<path d="M18.4226 13.3818C18.4724 12.8838 18.109 12.4397 17.611 12.3899C17.113 12.3401 16.6689 12.7035 16.6191 13.2015L16.0149 19.2432C15.9651 19.7412 16.3285 20.1853 16.8265 20.2351C17.3245 20.2849 17.7686 19.9215 17.8184 19.4235L18.4226 13.3818Z" fill="white"/>
</svg>
